<?xml version="1.0" standalone="no"?>
<!DOCTYPE svg PUBLIC "-//W3C//DTD SVG 20010904//EN"
 "http://www.w3.org/TR/2001/REC-SVG-20010904/DTD/svg10.dtd">
<svg version="1.0" xmlns="http://www.w3.org/2000/svg"
 width="512.000000pt" height="512.000000pt" viewBox="0 0 512.000000 512.000000"
 preserveAspectRatio="xMidYMid meet">

<g transform="translate(0.000000,512.000000) scale(0.100000,-0.100000)"
fill="#000000" stroke="none">
<path d="M1404 4905 c-77 -17 -167 -53 -242 -96 -69 -41 -740 -701 -808 -796
-54 -75 -105 -184 -130 -278 -18 -67 -19 -131 -19 -1320 0 -1189 1 -1253 19
-1320 71 -269 253 -466 511 -555 l100 -35 1154 -3 1154 -3 66 -62 c180 -169
377 -244 621 -234 153 6 225 24 355 88 214 105 353 264 430 494 38 113 44 257
45 1098 l0 707 53 0 c73 0 133 33 170 92 56 90 28 215 -60 270 -38 23 -39 23
-468 28 l-430 5 -5 660 c-6 722 -4 692 -69 830 -100 216 -282 365 -515 425
-77 19 -107 20 -975 19 -707 0 -909 -3 -957 -14z m1898 -407 c80 -37 152 -107
191 -187 l32 -66 3 -632 3 -633 -343 0 c-391 0 -400 -2 -457 -80 -97 -134 -3
-309 167 -310 l52 0 0 -767 c0 -423 3 -805 7 -850 l6 -83 -989 0 c-629 0
-1012 4 -1052 10 -128 21 -228 94 -284 208 l-33 67 0 1240 0 1240 28 60 c24
52 75 107 365 398 185 186 352 347 370 359 19 11 59 29 90 39 54 17 109 18
922 16 l865 -2 57 -27z m963 -2233 l0 -320 -462 -3 -463 -2 0 325 0 325 463
-2 462 -3 0 -320z"/>
<path d="M1280 3808 c-188 -53 -185 -325 5 -377 27 -7 254 -11 701 -11 749 0
736 -1 798 71 70 82 65 199 -12 270 -22 21 -57 42 -78 48 -51 14 -1364 13
-1414 -1z"/>
<path d="M1267 2895 c-153 -54 -172 -263 -32 -350 l48 -30 409 -3 c456 -4 497
0 555 51 41 36 72 97 73 141 0 85 -60 171 -136 194 -62 18 -865 16 -917 -3z"/>
<path d="M1260 1984 c-151 -66 -162 -283 -17 -353 44 -21 51 -22 500 -19 l455
3 39 31 c55 45 77 88 78 154 0 70 -28 125 -84 165 l-43 30 -446 2 c-383 2
-452 0 -482 -13z"/>
</g>
</svg>
