<?xml version="1.0" standalone="no"?>
<!DOCTYPE svg PUBLIC "-//W3C//DTD SVG 20010904//EN"
 "http://www.w3.org/TR/2001/REC-SVG-20010904/DTD/svg10.dtd">
<svg version="1.0" xmlns="http://www.w3.org/2000/svg"
 width="512.000000pt" height="512.000000pt" viewBox="0 0 512.000000 512.000000"
 preserveAspectRatio="xMidYMid meet">

<g transform="translate(0.000000,512.000000) scale(0.100000,-0.100000)"
fill="#000000" stroke="none">
<path d="M2345 4998 c-415 -42 -837 -220 -1160 -490 -416 -347 -684 -840 -756
-1388 -17 -133 -15 -421 5 -555 62 -409 229 -782 493 -1095 332 -395 821 -662
1343 -735 152 -21 429 -21 580 0 1003 141 1764 949 1851 1965 43 506 -117
1046 -432 1462 -77 102 -249 280 -347 360 -436 357 -1016 533 -1577 476z m345
-338 c852 -66 1531 -698 1654 -1541 18 -122 21 -354 6 -479 -14 -116 -65 -316
-107 -425 -239 -609 -766 -1031 -1418 -1136 -104 -17 -426 -17 -530 0 -759
122 -1340 672 -1502 1420 -34 160 -43 443 -19 611 30 203 81 369 167 547 275
564 848 954 1472 1002 146 12 140 11 277 1z"/>
<path d="M2464 3810 c-144 -20 -254 -72 -344 -162 -63 -62 -120 -163 -120
-210 0 -41 23 -88 59 -123 26 -24 41 -30 94 -33 78 -5 116 18 164 100 18 31
46 66 62 78 104 73 272 65 355 -17 47 -48 61 -99 45 -167 -11 -47 -23 -62
-150 -186 -75 -74 -154 -160 -174 -191 -81 -126 -133 -371 -87 -412 26 -23
283 -25 302 -3 6 8 16 47 21 87 20 140 36 167 195 323 126 124 147 150 179
218 20 42 42 106 48 142 40 235 -137 486 -383 544 -67 16 -197 22 -266 12z"/>
<path d="M2459 2317 c-93 -35 -140 -104 -140 -203 0 -80 37 -139 110 -176 58
-30 108 -35 162 -17 127 43 183 188 116 301 -49 83 -162 127 -248 95z"/>
<path d="M1973 654 c-2 -7 -3 -102 -1 -211 4 -212 8 -232 60 -280 55 -52 65
-53 528 -53 463 0 473 1 528 53 52 48 56 68 60 280 2 109 1 204 -1 211 -5 11
-19 11 -84 -4 -320 -75 -699 -73 -1026 4 -49 11 -59 12 -64 0z"/>
</g>
</svg>
